<svg version="1.1" xmlns="http://www.w3.org/2000/svg" xmlns:xlink="http://www.w3.org/1999/xlink" x="0px" y="0px" width="100%"
	 height="100%" viewBox="0 0 231.1 230.3" enable-background="new 0 0 231.1 230.3">
<g id="Logo">
	<circle fill="#981E32" cx="115.9" cy="114.3" r="70"/>
	<g>
		<g>
			<g>
				<path fill="#FFFFFF" d="M125.8,158.9c0,0,4.6-1.9,7-9.5c2.2,4.6,1.6,9.3,1.6,9.3C132.4,159.2,125.8,158.9,125.8,158.9z"/>
				<path fill="#FFFFFF" d="M150.2,115.8c0,0,2.8,15.1-7.1,15.6c-9.5,0.5-14-13.8-14-13.8s2.3,27.9,15.6,26.1
					C159.8,141.7,150.2,115.8,150.2,115.8z"/>
			</g>
		</g>
		<path fill="#FFFFFF" d="M78,155.3C78,155.3,78,155.3,78,155.3c11.1-2.5,19.6-15.5,22.1-20.7l1.6-3.3l1,3.5c0,0.2,1.1,4.1,1.1,9.2
			c0,0.6,0,1.2,0,1.7c3.8,0.1,6.6-0.6,8.2-2.4c2.4-2.5,3.2-7.3,2.3-14.6c-0.4-3.5-1.7-9.1-2.9-13.9c-0.6-2.5-1.1-4.9-1.5-6.5
			c-2.1-10.7,0.5-17.4,3.1-21.1c0.4-0.6,0.9-1.1,1.3-1.7c-7.7,2.6-14.1,6.6-20.7,13.2l4.7,5.4l1.9-1.8c1.8,6.7,0.5,12.9,0.5,12.9
			c-2.5-3.7-5.4-6.8-5.4-6.8l1.3-2.1l-4.2-4.9l-0.5-0.5C86.7,108.1,85,114,85,114l3.7,3.3l2.1,1.9l0.7-2.1
			c3.9,7.4,0.4,14.3,0.4,14.3c-0.7-2.5-3.3-6.2-3.3-6.2l1-3.4l-5.5-5c-5.7,17.7-13.3,23.5-13.3,23.5s8.2-1.5,12.8-3
			C83.7,137.4,83.6,146.7,78,155.3z"/>
		<path fill="#FFFFFF" d="M160.9,91.2l-13.1,0.6c0,1.6-0.2,3.1-0.7,4.6c1.2,5.4,0.4,8.3,0.4,8.3c-2.2-5.1-3.9-6.5-3.9-6.5
			c-12-5.4-18.8,6.7-18.1,14.6c0.6,6.4,2.9,14.9,4.7,28.3c1.5,11.2-4.2,16.1-10.7,17.2c-0.1,0-0.3,0.1-0.4,0.1c0,0-0.1,0-0.1,0
			c-1.1,0.1-2.2,0.2-3.4,0.1c0,0-0.1,0-0.1,0c-0.1,0-0.3,0-0.4,0c-0.5,0-1-0.1-1.5-0.1c-5.1-0.7-16.5-2.8-28.3-3.1
			c6.9-4.1,12.4-11,15.4-16c0.2,1.4,0.3,3.1,0.3,4.9c0,0.9,0,1.9-0.1,2.9l-0.1,1.3l1.4,0.1c5.4,0.5,9.3-0.6,11.8-3.2
			c3.1-3.2,4-8.5,3-16.8c-0.5-3.6-1.8-9.3-2.9-14.2c-0.6-2.5-1.1-4.8-1.5-6.5c-1.9-9.8,0.4-15.7,2.7-19c1.8-2.6,4.3-4.4,7-5.3
			c0,0,0.1,0,0.1,0l4.5-13.8h1.4l-3,13.2c0.7-0.1,1.4-0.2,2.1-0.3l3.9-12.2h1.4l-2.5,11.8c4-0.5,8.3-0.9,13.1-1.3
			c0.8,0.3,1.6,1.2,2.4,2.5l12.6-3.9l0.5,1.4l-12.1,4.7c0.1,0.2,0.2,0.5,0.3,0.8l13.2-1.6l0.2,1.4l-12.8,2.6c0,0.2,0.1,0.5,0.1,0.7
			l13.3,0.4L160.9,91.2z M122.9,97.1c2.6-1.8,7.1-3.3,11.4-3c1.1,0.1,2-0.2,0.8-0.8c-3.2-1.7-10.5-1.1-13.1,0.7
			c-4.2,2.8-3.5,7.9-3.4,8C119.4,100.6,120.9,98.6,122.9,97.1z"/>
	</g>
</g>
<g id="Arc_and_Text">
	<path fill="#5E6A71" d="M115.9,4C55.2,4,5.9,53.3,5.9,113.9c0,3.9,0.2,7.6,0.6,11.6H43c-0.6-3.6-0.8-7.4-0.8-11.2
		c0-5.9,0.7-11.6,2-17L14.8,85.4l31,6c1.6-4.9,3.7-9.5,6.2-13.9L27.2,57.9l28,14.5c2.9-4.2,6.2-8.1,9.9-11.6L46.9,35l22.7,21.8
		c3.9-3.2,8.2-6,12.7-8.3L72.1,18.6L87.8,46c4.6-1.9,9.5-3.4,14.5-4.3l-1.5-31.6l7.4,30.7c2.6-0.3,5.2-0.4,7.9-0.4
		c2.5,0,4.9,0.1,7.3,0.4l7.4-30.6l-1.5,31.5c5.1,0.9,10,2.3,14.6,4.2l15.6-27.2l-10.2,29.7c4.6,2.3,8.9,5.1,12.9,8.3l22.5-21.6
		l-18,25.6c3.7,3.5,7.1,7.4,10,11.6l27.6-14.3l-24.4,19.4c2.6,4.4,4.7,9.1,6.3,14l30.6-5.9l-28.9,11.7c1.3,5.5,2,11.3,2,17.3
		c0,3.6-0.3,7.1-0.8,10.5c0,0.2,0,0.4-0.1,0.7h36c0.4-4,0.6-7.7,0.6-11.6C225.9,53.2,176.7,4,115.9,4z"/>
	<path id="SVGID_x5F_1_x5F_" fill="none" d="M225.9,116.1c0-60.8-49.3-110-110-110c-60.8,0-110,49.2-110,110
		c0,60.7,49.2,110,110,110C176.7,226.1,225.9,176.9,225.9,116.1z"/>
	<text font-family="'Open Sans', sans-serif" font-weight="700" letter-spacing="2px" font-size="32.7824"><textPath xlink:href="#SVGID_x5F_1_x5F_" startOffset="53.4%">CRIMSON SPIRIT</textPath>
</text>
</g>
</svg>
