<svg xmlns="http://www.w3.org/2000/svg" width="24" height="24" viewBox="0 0 24 24"><path fill="none" d="M0 0h24v24H0V0z"/><path fill="#C60C30" d="M21.201 6.25H16.6v-2.3l-2.302-2.3H9.7l-2.3 2.3v2.3H2.8a2.306 2.306 0 0 0-2.3 2.3v5.749c0 .864.46 1.588 1.149 1.991v3.759a2.295 2.295 0 0 0 2.3 2.302h16.099a2.295 2.295 0 0 0 2.302-2.302v-3.772a2.308 2.308 0 0 0 1.149-1.978V8.55a2.305 2.305 0 0 0-2.298-2.3zM9.7 3.95h4.599v2.3H9.7v-2.3zm-6.9 4.6h18.401v5.749h-5.75v-3.448H8.55v3.448H2.8V8.55zm10.349 6.901H10.85v-2.302h2.299v2.302zm6.9 4.598H3.95v-3.448h4.6v1.149h6.901v-1.149h4.598v3.448z"/></svg>