<svg xmlns="http://www.w3.org/2000/svg" width="24" height="24" viewBox="0 0 24 24"><path fill="none" d="M0 0h24v24H0V0z"></path><path fill="#C60C30" d="M8.342 13.721c.165 0 .318-.012.471-.034a3.451 3.451 0 0 0 3.188 2.147 3.454 3.454 0 0 0 3.188-2.147c.153.022.317.034.471.034a3.445 3.445 0 0 0 3.439-3.44c0-.778-.273-1.523-.734-2.114a3.395 3.395 0 0 0 .734-2.115 3.445 3.445 0 0 0-3.91-3.405A3.453 3.453 0 0 0 12 .5a3.452 3.452 0 0 0-3.188 2.146 3.445 3.445 0 0 0-3.909 3.406c0 .779.273 1.523.733 2.115a3.402 3.402 0 0 0-.745 2.114 3.45 3.45 0 0 0 3.451 3.44zM12 13.643a1.247 1.247 0 0 1-1.249-1.205l.132-1.193c.35.131.723.208 1.117.208s.778-.077 1.127-.208l.123 1.193A1.249 1.249 0 0 1 12 13.643zm3.658-2.114c-.264 0-.505-.077-.7-.218l-.888-.625a3.264 3.264 0 0 0 1.161-2.005l.964.46c.438.208.723.646.723 1.128a1.26 1.26 0 0 1-1.26 1.26zm-.713-6.506a1.3 1.3 0 0 1 .713-.219c.691 0 1.248.559 1.248 1.248 0 .482-.273.909-.723 1.129l-.965.46a3.223 3.223 0 0 0-1.171-2.005l.898-.613zM12 2.69c.679 0 1.228.537 1.25 1.205l-.123 1.194c-.349-.131-.733-.208-1.127-.208s-.767.077-1.117.208l-.132-1.194A1.248 1.248 0 0 1 12 2.69zM8.342 4.804c.263 0 .504.077.701.219l.887.613a3.265 3.265 0 0 0-1.161 2.005l-.964-.46c-.438-.22-.723-.647-.723-1.129 0-.689.57-1.248 1.26-1.248zm-.537 4.348l.964-.46a3.227 3.227 0 0 0 1.173 2.005l-.887.603c-.22.142-.46.219-.712.219-.69 0-1.249-.559-1.249-1.249-.012-.471.273-.898.711-1.118zM12 23.5c5.443 0 9.857-4.415 9.857-9.857-5.445 0-9.857 4.415-9.857 9.857zm2.672-2.672a7.688 7.688 0 0 1 4.514-4.514 7.72 7.72 0 0 1-4.514 4.514zM2.143 13.643c0 5.442 4.414 9.857 9.857 9.857 0-5.442-4.414-9.857-9.857-9.857zm2.672 2.671a7.683 7.683 0 0 1 4.513 4.514 7.713 7.713 0 0 1-4.513-4.514z"></path></svg>