<svg xmlns="http://www.w3.org/2000/svg" width="20" height="20"><path d="M6.272 17.728a3.103 3.103 0 0 1 0-4.384L9.1 10.515 7.757 9.171 4.929 12a5.003 5.003 0 0 0 0 7.071 5.003 5.003 0 0 0 7.071 0l2.828-2.829-1.344-1.344-2.828 2.829a3.102 3.102 0 0 1-4.384.001zm3.607-2.193l5.656-5.656-1.414-1.415-5.657 5.657 1.415 1.414zM12 4.929L9.171 7.757 10.515 9.1l2.829-2.828a3.103 3.103 0 0 1 4.384 0 3.103 3.103 0 0 1 0 4.384l-2.829 2.828 1.344 1.344L19.071 12a5.003 5.003 0 0 0 0-7.071 5.003 5.003 0 0 0-7.071 0z" fill="#5e6a71"/></svg>