<svg xmlns="http://www.w3.org/2000/svg" width="24" height="24" viewBox="0 0 24 24"><path fill="none" d="M0 0h24v24H0V0z"/><path fill="#C60C30" d="M16.015 9.274C15.806 6.066 14.508 2.938 12.069.5a14.013 14.013 0 0 0-4.082 8.774A15.932 15.932 0 0 1 12 12.299a16.505 16.505 0 0 1 4.015-3.025zm-3.958-5.105a11.663 11.663 0 0 1 1.495 3.887c-.54.346-1.046.724-1.541 1.126-.483-.391-1-.771-1.529-1.115.287-1.38.817-2.703 1.575-3.898zM12 15.969a13.907 13.907 0 0 0-3.519-3.681c-.15-.104-.311-.185-.46-.299.149.103.31.195.449.288A13.538 13.538 0 0 0 .5 9.7c0 6.119 3.864 11.292 9.234 13.214.726.265 1.483.459 2.266.586a15.079 15.079 0 0 0 2.267-.586C19.637 20.992 23.5 15.818 23.5 9.7c-4.807 0-9.027 2.495-11.5 6.269zm1.52 4.77a13.99 13.99 0 0 1-1.531.426c-.506-.104-1-.242-1.472-.413-3.784-1.358-6.556-4.59-7.418-8.453 1.266.299 2.474.817 3.589 1.528l-.024.013c.149.102.3.207.449.288l.08.047a11.394 11.394 0 0 1 2.887 3.045L12 20.166l1.922-2.934a11.67 11.67 0 0 1 2.908-3.058l.081-.06c.102-.056.207-.124.309-.193l-.011-.025a11.494 11.494 0 0 1 3.691-1.608c-.861 3.874-3.622 7.106-7.38 8.451zm-4.981-8.416c-.023-.012-.046-.035-.058-.046 0 0 .012 0 .012.011a.17.17 0 0 0 .046.035z"/></svg>