<?xml version="1.0" encoding="utf-8"?>
<svg version="1.1" xmlns="http://www.w3.org/2000/svg" xmlns:xlink="http://www.w3.org/1999/xlink" x="0px" y="0px" width="24px"
	 height="24px" viewBox="0 0 24 24" enable-background="new 0 0 24 24" xml:space="preserve">
	 <title>Bookmarks Icon</title>
	 <path d="M15,7v12.97l-4.21-1.81L10,17.82l-0.79,0.34L5,19.97V7H15 M19,1H8.99C7.89,1,7,1.9,7,3h10c1.1,0,2,0.9,2,2v13l2,1V3
		C21,1.9,20.1,1,19,1L19,1z M15,5H5C3.9,5,3,5.9,3,7v16l7-3l7,3V7C17,5.9,16.1,5,15,5L15,5z" fill="#ca1237"></path>
</svg>
