<?xml version="1.0" encoding="utf-8"?>
<!-- Generator: Adobe Illustrator 16.0.3, SVG Export Plug-In . SVG Version: 6.00 Build 0)  -->
<!DOCTYPE svg PUBLIC "-//W3C//DTD SVG 1.1//EN" "http://www.w3.org/Graphics/SVG/1.1/DTD/svg11.dtd">
<svg version="1.1" id="Layer_1" xmlns="http://www.w3.org/2000/svg" xmlns:xlink="http://www.w3.org/1999/xlink" x="0px" y="0px"
	 width="24px" height="24px" viewBox="0 0 24 24" enable-background="new 0 0 24 24" xml:space="preserve">
<path fill="none" d="M0,0h24v24H0V0z"/>
<path fill="#C60C30" d="M8.342,13.721c0.165,0,0.318-0.012,0.471-0.034c0.515,1.259,1.752,2.147,3.188,2.147
	c1.436,0,2.672-0.889,3.188-2.147c0.153,0.022,0.317,0.034,0.471,0.034c1.895,0,3.439-1.545,3.439-3.44
	c0-0.778-0.273-1.523-0.734-2.114c0.471-0.592,0.734-1.336,0.734-2.115c0-1.894-1.545-3.438-3.439-3.438
	c-0.164,0-0.317,0.011-0.471,0.033C14.672,1.387,13.436,0.5,12,0.5c-1.435,0-2.672,0.887-3.188,2.146
	C8.66,2.625,8.495,2.614,8.342,2.614c-1.894,0-3.439,1.544-3.439,3.438c0,0.779,0.273,1.523,0.733,2.115
	c-0.471,0.591-0.745,1.336-0.745,2.114C4.892,12.176,6.437,13.721,8.342,13.721z M12,13.643c-0.679,0-1.227-0.537-1.249-1.205
	l0.132-1.193c0.35,0.131,0.723,0.208,1.117,0.208s0.778-0.077,1.127-0.208l0.123,1.193C13.228,13.105,12.679,13.643,12,13.643z
	 M15.658,11.529c-0.264,0-0.505-0.077-0.7-0.218l-0.888-0.625c0.602-0.493,1.029-1.193,1.161-2.005l0.964,0.46
	c0.438,0.208,0.723,0.646,0.723,1.128C16.918,10.97,16.35,11.529,15.658,11.529z M14.945,5.023c0.221-0.143,0.461-0.219,0.713-0.219
	c0.691,0,1.248,0.559,1.248,1.248c0,0.482-0.273,0.909-0.723,1.129l-0.965,0.46c-0.129-0.81-0.559-1.512-1.171-2.005L14.945,5.023z
	 M12,2.69c0.679,0,1.228,0.537,1.25,1.205l-0.123,1.194C12.778,4.958,12.394,4.881,12,4.881s-0.767,0.077-1.117,0.208l-0.132-1.194
	C10.773,3.228,11.321,2.69,12,2.69z M8.342,4.804c0.263,0,0.504,0.077,0.701,0.219L9.93,5.636C9.328,6.129,8.9,6.831,8.769,7.641
	l-0.964-0.46c-0.438-0.22-0.723-0.647-0.723-1.129C7.082,5.363,7.652,4.804,8.342,4.804z M7.805,9.152l0.964-0.46
	c0.132,0.811,0.559,1.512,1.173,2.005l-0.887,0.603c-0.22,0.142-0.46,0.219-0.712,0.219c-0.69,0-1.249-0.559-1.249-1.249
	C7.082,9.799,7.367,9.372,7.805,9.152z M12,23.5c5.443,0,9.857-4.415,9.857-9.857C16.412,13.643,12,18.058,12,23.5z M14.672,20.828
	c0.779-2.082,2.432-3.746,4.514-4.514C18.406,18.396,16.754,20.049,14.672,20.828z M2.143,13.643c0,5.442,4.414,9.857,9.857,9.857
	C12,18.058,7.586,13.643,2.143,13.643z M4.815,16.314c2.082,0.779,3.746,2.432,4.513,4.514C7.247,20.049,5.592,18.396,4.815,16.314z
	"/>
</svg>
