<?xml version="1.0" encoding="utf-8"?>
<!-- Generator: Adobe Illustrator 16.0.3, SVG Export Plug-In . SVG Version: 6.00 Build 0)  -->
<!DOCTYPE svg PUBLIC "-//W3C//DTD SVG 1.1//EN" "http://www.w3.org/Graphics/SVG/1.1/DTD/svg11.dtd">
<svg version="1.1" id="Layer_1" xmlns="http://www.w3.org/2000/svg" xmlns:xlink="http://www.w3.org/1999/xlink" x="0px" y="0px"
	 width="24px" height="24px" viewBox="0 0 24 24" enable-background="new 0 0 24 24" xml:space="preserve">
<path fill="none" d="M0,0h24v24H0V0z"/>
<path fill="#C60C30" d="M6.167,16.668h8.167v2.331H6.167V16.668z M6.167,12h11.666v2.334H6.167V12z M6.167,7.333h11.666v2.333H6.167
	V7.333z M20.166,2.667h-4.877C14.802,1.313,13.517,0.333,12,0.333s-2.8,0.98-3.29,2.334H3.834c-0.164,0-0.315,0.011-0.467,0.046
	C2.912,2.806,2.503,3.04,2.188,3.355C1.979,3.564,1.804,3.821,1.687,4.102C1.57,4.37,1.5,4.672,1.5,5v16.333
	c0,0.313,0.07,0.631,0.187,0.909c0.117,0.28,0.292,0.526,0.501,0.748c0.315,0.313,0.724,0.55,1.179,0.641
	c0.152,0.023,0.304,0.036,0.467,0.036h16.332c1.284,0,2.334-1.05,2.334-2.334V5C22.5,3.716,21.45,2.667,20.166,2.667z M12,2.375
	c0.479,0,0.876,0.397,0.876,0.876c0,0.478-0.397,0.875-0.876,0.875s-0.875-0.397-0.875-0.875C11.125,2.771,11.521,2.375,12,2.375z
	 M20.166,21.333H3.834V5h16.332V21.333z"/>
</svg>
