<?xml version="1.0" encoding="utf-8"?>
<!-- Generator: Adobe Illustrator 16.0.3, SVG Export Plug-In . SVG Version: 6.00 Build 0)  -->
<!DOCTYPE svg PUBLIC "-//W3C//DTD SVG 1.1//EN" "http://www.w3.org/Graphics/SVG/1.1/DTD/svg11.dtd">
<svg version="1.1" id="Layer_1" xmlns="http://www.w3.org/2000/svg" xmlns:xlink="http://www.w3.org/1999/xlink" x="0px" y="0px"
	 width="24px" height="24px" viewBox="0 0 24 24" enable-background="new 0 0 24 24" xml:space="preserve">
<path fill="none" d="M0,0h24v24H0V0z"/>
<path fill="#C60C30" d="M10.851,6.25h2.299v2.3h-2.299V6.25z M10.851,10.851h2.299v6.899h-2.299V10.851z M12,0.5
	C5.652,0.5,0.5,5.652,0.5,12c0,6.349,5.152,11.5,11.5,11.5c6.349,0,11.5-5.151,11.5-11.5C23.5,5.652,18.349,0.5,12,0.5z M12,21.201
	c-5.072,0-9.2-4.129-9.2-9.201S6.928,2.8,12,2.8s9.201,4.127,9.201,9.2S17.072,21.201,12,21.201z"/>
</svg>
