<svg xmlns="http://www.w3.org/2000/svg" width="20px" height="20px" viewBox="0 0 20 20">
	<title>Link Icon</title>
	<path d="M6.272,17.728c-1.209-1.209-1.209-3.175,0-4.384l2.828-2.829L7.757,9.171L4.929,12c-1.951,1.951-1.951,5.119,0,7.071
	c1.952,1.951,5.12,1.951,7.071,0l2.828-2.829l-1.344-1.344l-2.828,2.829C9.447,18.937,7.481,18.937,6.272,17.728z M9.879,15.535
	l5.656-5.656l-1.414-1.415l-5.657,5.657L9.879,15.535z M12,4.929L9.171,7.757l1.344,1.343l2.829-2.828
	c1.209-1.209,3.175-1.209,4.384,0c1.209,1.209,1.209,3.175,0,4.384l-2.829,2.828l1.344,1.344L19.071,12
	c1.951-1.952,1.951-5.12,0-7.071C17.119,2.978,13.951,2.978,12,4.929z" fill="#5e6a71"/>
</svg>
