<svg xmlns="http://www.w3.org/2000/svg" xmlns:xlink="http://www.w3.org/1999/xlink" viewBox="0 0 231.1 230.3"><circle fill="#981E32" cx="115.9" cy="114.3" r="70"></circle><g fill="#FFF"><path d="M125.8 158.9s4.6-1.9 7-9.5c2.2 4.6 1.6 9.3 1.6 9.3-2 .5-8.6.2-8.6.2zM150.2 115.8s2.8 15.1-7.1 15.6c-9.5.5-14-13.8-14-13.8s2.3 27.9 15.6 26.1c15.1-2 5.5-27.9 5.5-27.9z"></path></g><path fill="#FFF" d="M78 155.3c11.1-2.5 19.6-15.5 22.1-20.7l1.6-3.3 1 3.5c0 .2 1.1 4.1 1.1 9.2v1.7c3.8.1 6.6-.6 8.2-2.4 2.4-2.5 3.2-7.3 2.3-14.6-.4-3.5-1.7-9.1-2.9-13.9-.6-2.5-1.1-4.9-1.5-6.5-2.1-10.7.5-17.4 3.1-21.1.4-.6.9-1.1 1.3-1.7-7.7 2.6-14.1 6.6-20.7 13.2l4.7 5.4 1.9-1.8c1.8 6.7.5 12.9.5 12.9-2.5-3.7-5.4-6.8-5.4-6.8l1.3-2.1-4.2-4.9-.5-.5C86.7 108.1 85 114 85 114l3.7 3.3 2.1 1.9.7-2.1c3.9 7.4.4 14.3.4 14.3-.7-2.5-3.3-6.2-3.3-6.2l1-3.4-5.5-5c-5.7 17.7-13.3 23.5-13.3 23.5s8.2-1.5 12.8-3c.1.1 0 9.4-5.6 18z"></path><path fill="#FFF" d="M160.9 91.2l-13.1.6c0 1.6-.2 3.1-.7 4.6 1.2 5.4.4 8.3.4 8.3-2.2-5.1-3.9-6.5-3.9-6.5-12-5.4-18.8 6.7-18.1 14.6.6 6.4 2.9 14.9 4.7 28.3 1.5 11.2-4.2 16.1-10.7 17.2-.1 0-.3.1-.4.1h-.1c-1.1.1-2.2.2-3.4.1h-.5c-.5 0-1-.1-1.5-.1-5.1-.7-16.5-2.8-28.3-3.1 6.9-4.1 12.4-11 15.4-16 .2 1.4.3 3.1.3 4.9 0 .9 0 1.9-.1 2.9l-.1 1.3 1.4.1c5.4.5 9.3-.6 11.8-3.2 3.1-3.2 4-8.5 3-16.8-.5-3.6-1.8-9.3-2.9-14.2-.6-2.5-1.1-4.8-1.5-6.5-1.9-9.8.4-15.7 2.7-19 1.8-2.6 4.3-4.4 7-5.3h.1l4.5-13.8h1.4l-3 13.2 2.1-.3 3.9-12.2h1.4l-2.5 11.8c4-.5 8.3-.9 13.1-1.3.8.3 1.6 1.2 2.4 2.5l12.6-3.9.5 1.4-12.1 4.7c.1.2.2.5.3.8l13.2-1.6.2 1.4-12.8 2.6c0 .2.1.5.1.7l13.3.4-.1 1.3zm-38 5.9c2.6-1.8 7.1-3.3 11.4-3 1.1.1 2-.2.8-.8-3.2-1.7-10.5-1.1-13.1.7-4.2 2.8-3.5 7.9-3.4 8 .8-1.4 2.3-3.4 4.3-4.9z"></path><g><path fill="#5E6A71" d="M115.9 4C55.2 4 5.9 53.3 5.9 113.9c0 3.9.2 7.6.6 11.6H43c-.6-3.6-.8-7.4-.8-11.2 0-5.9.7-11.6 2-17L14.8 85.4l31 6c1.6-4.9 3.7-9.5 6.2-13.9L27.2 57.9l28 14.5c2.9-4.2 6.2-8.1 9.9-11.6L46.9 35l22.7 21.8c3.9-3.2 8.2-6 12.7-8.3L72.1 18.6 87.8 46c4.6-1.9 9.5-3.4 14.5-4.3l-1.5-31.6 7.4 30.7c2.6-.3 5.2-.4 7.9-.4 2.5 0 4.9.1 7.3.4l7.4-30.6-1.5 31.5c5.1.9 10 2.3 14.6 4.2l15.6-27.2-10.2 29.7c4.6 2.3 8.9 5.1 12.9 8.3l22.5-21.6-18 25.6c3.7 3.5 7.1 7.4 10 11.6L204.3 58l-24.4 19.4c2.6 4.4 4.7 9.1 6.3 14l30.6-5.9-28.9 11.7c1.3 5.5 2 11.3 2 17.3 0 3.6-.3 7.1-.8 10.5 0 .2 0 .4-.1.7h36c.4-4 .6-7.7.6-11.6C225.9 53.2 176.7 4 115.9 4z"></path><path id="a" fill="none" d="M225.9 116.1c0-60.8-49.3-110-110-110-60.8 0-110 49.2-110 110 0 60.7 49.2 110 110 110s110-49.2 110-110z"></path><text font-family="'Open Sans', sans-serif" font-weight="700" letter-spacing="2" font-size="32.782"><textPath xlink:href="#a" startOffset="53.4%">CRIMSON SPIRIT</textPath></text></g></svg>