<?xml version="1.0" encoding="utf-8"?>
<!-- Generator: Adobe Illustrator 16.0.3, SVG Export Plug-In . SVG Version: 6.00 Build 0)  -->
<!DOCTYPE svg PUBLIC "-//W3C//DTD SVG 1.1//EN" "http://www.w3.org/Graphics/SVG/1.1/DTD/svg11.dtd">
<svg version="1.1" id="Layer_1" xmlns="http://www.w3.org/2000/svg" xmlns:xlink="http://www.w3.org/1999/xlink" x="0px" y="0px"
	 width="24px" height="24px" viewBox="0 0 24 24" enable-background="new 0 0 24 24" xml:space="preserve">
<path fill="none" d="M0,0h24v24H0V0z"></path>
<path fill="#C60C30" d="M12,3.75c1.51,0,2.75,1.237,2.75,2.75S13.51,9.25,12,9.25c-1.513,0-2.75-1.237-2.75-2.75
	S10.487,3.75,12,3.75 M12,17.5c3.714,0,7.974,1.776,8.25,2.75H3.75C4.065,19.261,8.302,17.5,12,17.5 M12,1
	C8.961,1,6.5,3.461,6.5,6.5S8.961,12,12,12c3.036,0,5.5-2.461,5.5-5.5S15.036,1,12,1z M12,14.75c-3.672,0-11,1.844-11,5.5V23h22
	v-2.75C23,16.594,15.672,14.75,12,14.75z"></path>
</svg>
