<?xml version="1.0" encoding="utf-8"?>
<!-- Generator: Adobe Illustrator 16.0.3, SVG Export Plug-In . SVG Version: 6.00 Build 0)  -->
<!DOCTYPE svg PUBLIC "-//W3C//DTD SVG 1.1//EN" "http://www.w3.org/Graphics/SVG/1.1/DTD/svg11.dtd">
<svg version="1.1" id="Layer_1" xmlns="http://www.w3.org/2000/svg" xmlns:xlink="http://www.w3.org/1999/xlink" x="0px" y="0px"
	 width="24px" height="24px" viewBox="0 0 24 24" enable-background="new 0 0 24 24" xml:space="preserve">
<path fill="none" d="M0,0h24v24H0V0z"></path>
<path fill="#C60C30" d="M16.015,9.274c-0.209-3.208-1.507-6.336-3.946-8.774C9.608,2.961,8.251,6.089,7.987,9.274
	c1.472,0.783,2.83,1.794,4.013,3.025C13.185,11.08,14.541,10.068,16.015,9.274z M12.057,4.169c0.725,1.184,1.23,2.507,1.495,3.887
	c-0.54,0.346-1.046,0.724-1.541,1.126c-0.483-0.391-1-0.771-1.529-1.115C10.769,6.687,11.299,5.364,12.057,4.169z M12,15.969
	c-0.943-1.438-2.138-2.692-3.519-3.681c-0.15-0.104-0.311-0.185-0.46-0.299c0.149,0.103,0.31,0.195,0.449,0.288
	C6.227,10.654,3.478,9.7,0.5,9.7c0,6.119,3.864,11.292,9.234,13.214c0.726,0.265,1.483,0.459,2.266,0.586
	c0.782-0.138,1.529-0.334,2.267-0.586C19.637,20.992,23.5,15.818,23.5,9.7C18.693,9.7,14.473,12.195,12,15.969z M13.52,20.739
	c-0.508,0.174-1.014,0.312-1.531,0.426c-0.506-0.104-1-0.242-1.472-0.413c-3.784-1.358-6.556-4.59-7.418-8.453
	c1.266,0.299,2.474,0.817,3.589,1.528L6.664,13.84c0.149,0.102,0.3,0.207,0.449,0.288l0.08,0.047
	c1.138,0.827,2.116,1.85,2.887,3.045L12,20.166l1.922-2.934c0.792-1.208,1.782-2.243,2.908-3.058l0.081-0.06
	c0.102-0.056,0.207-0.124,0.309-0.193l-0.011-0.025c1.127-0.747,2.381-1.298,3.691-1.608C20.039,16.162,17.278,19.394,13.52,20.739z
	 M8.539,12.323c-0.023-0.012-0.046-0.035-0.058-0.046c0,0,0.012,0,0.012,0.011C8.504,12.299,8.516,12.311,8.539,12.323z"></path>
</svg>
