<?xml version="1.0" encoding="utf-8"?>
<!-- Generator: Adobe Illustrator 16.0.3, SVG Export Plug-In . SVG Version: 6.00 Build 0)  -->
<!DOCTYPE svg PUBLIC "-//W3C//DTD SVG 1.1//EN" "http://www.w3.org/Graphics/SVG/1.1/DTD/svg11.dtd">
<svg version="1.1" id="Layer_1" xmlns="http://www.w3.org/2000/svg" xmlns:xlink="http://www.w3.org/1999/xlink" x="0px" y="0px"
	 width="50.428px" height="50px" viewBox="7.481 7.416 50.428 50" enable-background="new 7.481 7.416 50.428 50"
	 xml:space="preserve">
<g>
	<path fill="#FFFFFF" d="M38.202,57.372c0,0,2.547-1.089,3.948-5.315c0.745,1.63,1.056,3.424,0.903,5.211
		C41.441,57.421,39.819,57.456,38.202,57.372z M48.867,48.883c-7.457,1.088-8.742-14.603-8.742-14.603s2.5,8.002,7.827,7.712
		c5.511-0.277,3.948-8.766,3.948-8.766S57.261,47.725,48.867,48.883z M14.649,45.339c-2.355,0.699-4.749,1.264-7.168,1.69
		c0,0,4.261-3.22,7.435-13.179l3.068,2.769l-0.579,1.899c0.767,1.068,1.383,2.237,1.83,3.474c1.173-2.561,1.101-5.523-0.198-8.025
		l-0.393,1.16l-1.159-1.09l-2.061-1.887c0.888-2.601,2.186-5.044,3.844-7.238l0.278,0.302l2.316,2.744l-0.707,1.159
		c1.101,1.187,2.104,2.461,2.999,3.809c0.416-2.41,0.316-4.88-0.289-7.249l-1.065,0.997l-2.628-3.046
		c3.23-3.371,7.227-5.912,11.649-7.411c-0.27,0.294-0.518,0.608-0.742,0.938c-1.471,2.061-2.952,5.789-1.749,11.799
		c0.175,0.949,0.499,2.317,0.823,3.683c0.635,2.744,1.354,5.858,1.609,7.815c0.509,4.088,0.092,6.764-1.263,8.187
		c-1.281,1.089-2.967,1.577-4.632,1.343V49.01c0.01-1.741-0.196-3.476-0.614-5.165l-0.566-1.98l-0.892,1.842
		c-1.401,2.919-6.172,10.168-12.379,11.58C13.32,52.298,14.431,48.875,14.649,45.339z"></path>
	<path fill="#FFFFFF" d="M50.429,18.394l-0.068-0.405l7.179-1.436l-0.128-0.8l-7.398,0.926c0-0.139-0.093-0.29-0.151-0.429
		l6.764-2.628l-0.29-0.706l-7.075,2.188c-0.295-0.588-0.758-1.077-1.331-1.402c-2.699,0.209-5.143,0.429-7.377,0.719l1.413-6.624
		h-0.684l-2.166,6.832l-1.157,0.197l1.688-7.411H38.85l-2.49,7.712h-0.093c-1.595,0.551-2.971,1.598-3.925,2.988
		c-1.286,1.83-2.594,5.154-1.505,10.642c0.196,0.915,0.498,2.224,0.822,3.625c0.647,2.779,1.376,5.94,1.631,7.979
		c0.592,4.632,0,7.632-1.679,9.427c-1.4,1.459-3.567,2.039-6.601,1.771l-0.764-0.069l0.07-0.754c0.051-0.538,0.074-1.079,0.069-1.62
		c0-0.919-0.063-1.835-0.185-2.746c-2.129,3.63-5.08,6.707-8.616,8.987c5.319,0.24,10.619,0.813,15.865,1.712l0.845,0.081h0.29
		c0.631,0.017,1.262-0.014,1.887-0.092h0.302c3.682-0.636,6.866-3.357,6.01-9.67c-1.007-7.492-2.316-12.261-2.652-15.864
		c-0.404-4.376,3.394-11.162,10.145-8.105c0.959,1.063,1.693,2.308,2.165,3.66c0.291-1.539,0.219-3.125-0.207-4.631
		c0.261-0.874,0.366-1.788,0.311-2.699l7.365-0.312v-0.811L50.429,18.394z M42.949,21.08c-2.249-0.136-4.484,0.448-6.38,1.668
		c-0.995,0.736-1.816,1.681-2.408,2.767c-0.273-1.734,0.458-3.475,1.887-4.493c2.308-1.095,4.956-1.233,7.364-0.383
		C44.06,21.022,43.597,21.126,42.949,21.08L42.949,21.08z"></path>
</g>
</svg>
